ISO-10303-21;
HEADER;
FILE_DESCRIPTION (( 'STEP AP214' ),
    '1' );
FILE_NAME ('delaval_nozzle.STEP',
    '2026-06-19T14:15:58',
    ( '' ),
    ( '' ),
    'SwSTEP 2.0',
    'SolidWorks 2025',
    '' );
FILE_SCHEMA (( 'AUTOMOTIVE_DESIGN' ));
ENDSEC;

DATA;
#1 = ORIENTED_EDGE ( 'NONE', *, *, #39, .T. ) ;
#2 = CARTESIAN_POINT ( 'NONE',  ( 0.000000000000000000, 0.000000000000000000, 0.000000000000000000 ) ) ;
#3 = CARTESIAN_POINT ( 'NONE',  ( -76.00000000000000000, 0.000000000000000000, 0.000000000000000000 ) ) ;
#4 = ORIENTED_EDGE ( 'NONE', *, *, #48, .T. ) ;
#5 = DIRECTION ( 'NONE',  ( 0.000000000000000000, 0.000000000000000000, -1.000000000000000000 ) ) ;
#6 = EDGE_CURVE ( 'NONE', #47, #65, #25, .T. ) ;
#7 = VECTOR ( 'NONE', #19, 1000.000000000000000 ) ;
#8 = PRODUCT_DEFINITION ( 'UNKNOWN', '', #22, #70 ) ;
#9 = AXIS2_PLACEMENT_3D ( 'NONE', #35, #5, #55 ) ;
#10 = ADVANCED_FACE ( 'NONE', ( #63 ), #38, .F. ) ;
#11 = DIRECTION ( 'NONE',  ( -0.8661855860486002978, 0.4997224534895772785, -0.000000000000000000 ) ) ;
#12 = CARTESIAN_POINT ( 'NONE',  ( -76.00000000000000000, 25.00000000000000000, 0.000000000000000000 ) ) ;
#13 = APPLICATION_PROTOCOL_DEFINITION ( 'draft international standard', 'automotive_design', 1998, #69 ) ;
#14 = UNCERTAINTY_MEASURE_WITH_UNIT (LENGTH_MEASURE( 1.000000000000000082E-05 ), #68, 'distance_accuracy_value', 'NONE');
#15 = ORIENTED_EDGE ( 'NONE', *, *, #6, .T. ) ;
#16 = VERTEX_POINT ( 'NONE', #46 ) ;
#17 = LINE ( 'NONE', #44, #28 ) ;
#18 = EDGE_CURVE ( 'NONE', #66, #47, #32, .T. ) ;
#19 = DIRECTION ( 'NONE',  ( -0.000000000000000000, 1.000000000000000000, -0.000000000000000000 ) ) ;
#20 = LINE ( 'NONE', #12, #76 ) ;
#21 = VERTEX_POINT ( 'NONE', #56 ) ;
#22 = PRODUCT_DEFINITION_FORMATION_WITH_SPECIFIED_SOURCE ( 'ANY', '', #60, .NOT_KNOWN. ) ;
#23 = CARTESIAN_POINT ( 'NONE',  ( -76.00000000000000000, 0.000000000000000000, 0.000000000000000000 ) ) ;
#24 = DIRECTION ( 'NONE',  ( -0.000000000000000000, -1.000000000000000000, -0.000000000000000000 ) ) ;
#25 = LINE ( 'NONE', #31, #7 ) ;
#26 = OPEN_SHELL ( 'NONE', ( #10 ) ) ;
#27 = CARTESIAN_POINT ( 'NONE',  ( 37.29999999999999005, 3.851859888774471706E-31, 0.000000000000000000 ) ) ;
#28 = VECTOR ( 'NONE', #11, 1000.000000000000114 ) ;
#29 = PRODUCT_DEFINITION_SHAPE ( 'NONE', 'NONE',  #8 ) ;
#30 = CARTESIAN_POINT ( 'NONE',  ( -76.00000000000000000, 25.00000000000000000, 0.000000000000000000 ) ) ;
#31 = CARTESIAN_POINT ( 'NONE',  ( 37.29999999999999005, 20.00000000000000000, 0.000000000000000000 ) ) ;
#32 = LINE ( 'NONE', #80, #40 ) ;
#33 = PRODUCT_CONTEXT ( 'NONE', #69, 'mechanical' ) ;
#34 = ORIENTED_EDGE ( 'NONE', *, *, #18, .T. ) ;
#35 = CARTESIAN_POINT ( 'NONE',  ( 0.000000000000000000, 0.000000000000000000, 0.000000000000000000 ) ) ;
#36 = EDGE_CURVE ( 'NONE', #77, #66, #75, .T. ) ;
#37 = APPLICATION_PROTOCOL_DEFINITION ( 'draft international standard', 'automotive_design', 1998, #73 ) ;
#38 = PLANE ( 'NONE',  #9 ) ;
#39 = EDGE_CURVE ( 'NONE', #65, #21, #61, .T. ) ;
#40 = VECTOR ( 'NONE', #72, 1000.000000000000000 ) ;
#41 = EDGE_LOOP ( 'NONE', ( #34, #15, #1, #4, #78, #53 ) ) ;
#42 = EDGE_CURVE ( 'NONE', #16, #77, #20, .T. ) ;
#43 = SHAPE_DEFINITION_REPRESENTATION ( #29, #64 ) ;
#44 = CARTESIAN_POINT ( 'NONE',  ( -25.99999999999999645, 25.00000000000000000, 0.000000000000000000 ) ) ;
#45 = DIRECTION ( 'NONE',  ( -0.9658902428684286168, -0.2589518077395251416, -0.000000000000000000 ) ) ;
#46 = CARTESIAN_POINT ( 'NONE',  ( -25.99999999999999645, 25.00000000000000000, 0.000000000000000000 ) ) ;
#47 = VERTEX_POINT ( 'NONE', #27 ) ;
#48 = EDGE_CURVE ( 'NONE', #21, #16, #17, .T. ) ;
#49 = DIRECTION ( 'NONE',  ( -1.000000000000000000, -0.000000000000000000, -0.000000000000000000 ) ) ;
#50 = DIRECTION ( 'NONE',  ( 1.000000000000000000, 0.000000000000000000, 0.000000000000000000 ) ) ;
#51 = PRODUCT_RELATED_PRODUCT_CATEGORY ( 'part', '', ( #60 ) ) ;
#52 = SHELL_BASED_SURFACE_MODEL ( 'NONE', ( #26 ) );
#53 = ORIENTED_EDGE ( 'NONE', *, *, #36, .T. ) ;
#54 =( GEOMETRIC_REPRESENTATION_CONTEXT ( 3 ) GLOBAL_UNCERTAINTY_ASSIGNED_CONTEXT ( ( #14 ) ) GLOBAL_UNIT_ASSIGNED_CONTEXT ( ( #68, #71, #62 ) ) REPRESENTATION_CONTEXT ( 'NONE', 'WORKASPACE' ) );
#55 = DIRECTION ( 'NONE',  ( -1.000000000000000000, 0.000000000000000000, -0.000000000000000000 ) ) ;
#56 = CARTESIAN_POINT ( 'NONE',  ( 0.000000000000000000, 10.00000000000000000, 0.000000000000000000 ) ) ;
#57 = VECTOR ( 'NONE', #24, 1000.000000000000000 ) ;
#58 = CARTESIAN_POINT ( 'NONE',  ( 37.29999999999999005, 20.00000000000000000, 0.000000000000000000 ) ) ;
#59 = CARTESIAN_POINT ( 'NONE',  ( 0.000000000000000000, 10.00000000000000000, 0.000000000000000000 ) ) ;
#60 = PRODUCT ( 'delaval_nozzle', 'delaval_nozzle', '', ( #33 ) ) ;
#61 = LINE ( 'NONE', #59, #67 ) ;
#62 =( NAMED_UNIT ( * ) SI_UNIT ( $, .STERADIAN. ) SOLID_ANGLE_UNIT ( ) );
#63 = FACE_OUTER_BOUND ( 'NONE', #41, .T. ) ;
#64 = MANIFOLD_SURFACE_SHAPE_REPRESENTATION ( 'delaval_nozzle', ( #52, #79 ), #54 ) ;
#65 = VERTEX_POINT ( 'NONE', #58 ) ;
#66 = VERTEX_POINT ( 'NONE', #3 ) ;
#67 = VECTOR ( 'NONE', #45, 1000.000000000000114 ) ;
#68 =( LENGTH_UNIT ( ) NAMED_UNIT ( * ) SI_UNIT ( .MILLI., .METRE. ) );
#69 = APPLICATION_CONTEXT ( 'automotive_design' ) ;
#70 = PRODUCT_DEFINITION_CONTEXT ( 'detailed design', #73, 'design' ) ;
#71 =( NAMED_UNIT ( * ) PLANE_ANGLE_UNIT ( ) SI_UNIT ( $, .RADIAN. ) );
#72 = DIRECTION ( 'NONE',  ( 1.000000000000000000, 0.000000000000000000, 0.000000000000000000 ) ) ;
#73 = APPLICATION_CONTEXT ( 'automotive_design' ) ;
#74 = DIRECTION ( 'NONE',  ( 0.000000000000000000, 0.000000000000000000, 1.000000000000000000 ) ) ;
#75 = LINE ( 'NONE', #23, #57 ) ;
#76 = VECTOR ( 'NONE', #49, 1000.000000000000000 ) ;
#77 = VERTEX_POINT ( 'NONE', #30 ) ;
#78 = ORIENTED_EDGE ( 'NONE', *, *, #42, .T. ) ;
#79 = AXIS2_PLACEMENT_3D ( 'NONE', #2, #74, #50 ) ;
#80 = CARTESIAN_POINT ( 'NONE',  ( -76.00000000000000000, 0.000000000000000000, 0.000000000000000000 ) ) ;
ENDSEC;
END-ISO-10303-21;
